<?xml version="1.0" encoding="UTF-8" standalone="no"?>
<!-- Created with Inkscape (http://www.inkscape.org/) -->

<svg
   version="1.1"
   id="svg1"
   width="35.200001"
   height="35.200001"
   viewBox="0 0 35.200001 35.200001"
   sodipodi:docname="favicon.svg"
   inkscape:version="1.4.2 (ebf0e940d0, 2025-05-08)"
   xmlns:inkscape="http://www.inkscape.org/namespaces/inkscape"
   xmlns:sodipodi="http://sodipodi.sourceforge.net/DTD/sodipodi-0.dtd"
   xmlns="http://www.w3.org/2000/svg"
   xmlns:svg="http://www.w3.org/2000/svg">
  <defs
     id="defs1" />
  <sodipodi:namedview
     id="namedview1"
     pagecolor="#ffffff"
     bordercolor="#000000"
     borderopacity="0.25"
     inkscape:showpageshadow="2"
     inkscape:pageopacity="0.0"
     inkscape:pagecheckerboard="0"
     inkscape:deskcolor="#d1d1d1"
     showgrid="false"
     inkscape:zoom="22.727272"
     inkscape:cx="17.622"
     inkscape:cy="17.6"
     inkscape:window-width="1920"
     inkscape:window-height="1011"
     inkscape:window-x="0"
     inkscape:window-y="0"
     inkscape:window-maximized="1"
     inkscape:current-layer="g1" />
  <g
     inkscape:groupmode="layer"
     inkscape:label="Image"
     id="g1">
    <path
       style="fill:#008000"
       d="m 25.550858,31.409144 c -0.749665,-0.749665 -0.617308,-1.315092 0.537143,-2.294675 2.199603,-1.866424 3.520898,-3.516892 4.659013,-5.819712 1.135728,-2.29799 1.180987,-2.518964 1.180987,-5.76616 0,-3.138588 -0.07256,-3.529775 -1.029327,-5.549717 C 29.710772,9.470977 28.065215,7.3449731 26.476692,6.2658303 25.282513,5.4545797 24.918042,4.7830115 25.230307,3.9692623 25.79274,2.5035847 27.745424,3.2641226 30.224444,5.9143947 33.349606,9.255446 34.725009,12.717077 34.768926,17.352 c 0.034,3.588566 -0.436066,5.422416 -2.214678,8.640001 -1.370435,2.479175 -4.924361,5.92 -6.114592,5.92 -0.212268,0 -0.612227,-0.226286 -0.888798,-0.502857 z m -14.72585,-5.257143 -2.9367821,-2.88 h -3.237256 c -2.5162929,0 -3.3492459,-0.111991 -3.74011274,-0.502858 -0.7414736,-0.741473 -0.7414736,-9.772812 0,-10.514286 C 1.301724,11.863991 2.134677,11.752 4.6509699,11.752 h 3.237256 l 2.9367821,-2.88 c 1.615231,-1.5839998 3.161895,-2.8799999 3.437031,-2.8799999 0.275136,0 0.726533,0.2262858 1.003104,0.5028572 C 15.70188,6.9315944 15.768,8.3802253 15.768,17.512 c 0,9.131775 -0.06612,10.580406 -0.502857,11.017143 -0.276571,0.276572 -0.727968,0.502858 -1.003104,0.502858 -0.275136,0 -1.8218,-1.296 -3.437031,-2.88 z m 11.52585,0.457142 c -0.802006,-0.802005 -0.610576,-1.295511 1.20792,-3.114007 3.753031,-3.753031 3.64312,-8.753259 -0.270701,-12.315152 -1.541578,-1.402961 -1.733411,-1.968935 -0.937219,-2.7651267 0.656619,-0.6566195 0.967684,-0.635065 2.247191,0.1557136 1.34498,0.8312441 2.820116,2.6828461 3.725268,4.6759891 0.992537,2.185564 0.992537,6.345317 0,8.530881 -0.905152,1.993143 -2.380288,3.844745 -3.725268,4.675989 -1.279507,0.790779 -1.590572,0.812333 -2.247191,0.155713 z M 19.208,21.966369 c -0.850092,-0.495134 -0.671393,-1.654105 0.4,-2.594236 0.688863,-0.604467 0.96,-1.129833 0.96,-1.860133 0,-0.7303 -0.271137,-1.255666 -0.96,-1.860132 -1.1889,-1.043243 -1.262275,-2.175863 -0.173108,-2.67212 0.632006,-0.287962 0.949944,-0.251696 1.615277,0.184247 1.026823,0.6728 2.012085,2.249931 2.275103,3.641809 0.26629,1.409188 -0.620414,3.666831 -1.844815,4.697096 -1.048195,0.881998 -1.422736,0.958386 -2.272457,0.463469 z"
       id="path1" />
  </g>
</svg>
